<?xml version="1.0" encoding="UTF-8" standalone="no"?>
<!-- Created with Inkscape (http://www.inkscape.org/) -->

<svg
   xmlns:dc="http://purl.org/dc/elements/1.1/"
   xmlns:cc="http://creativecommons.org/ns#"
   xmlns:rdf="http://www.w3.org/1999/02/22-rdf-syntax-ns#"
   xmlns:svg="http://www.w3.org/2000/svg"
   xmlns="http://www.w3.org/2000/svg"
   xmlns:sodipodi="http://sodipodi.sourceforge.net/DTD/sodipodi-0.dtd"
   xmlns:inkscape="http://www.inkscape.org/namespaces/inkscape"
   width="16px"
   height="16px"
   viewBox="0 0 16 16"
   version="1.1"
   id="SVGRoot"
   inkscape:version="0.92.5 (2060ec1f9f, 2020-04-08)"
   sodipodi:docname="Image.svg">
  <defs
     id="defs816" />
  <sodipodi:namedview
     id="base"
     pagecolor="#ffffff"
     bordercolor="#666666"
     borderopacity="1.0"
     inkscape:pageopacity="0.0"
     inkscape:pageshadow="2"
     inkscape:zoom="45.254834"
     inkscape:cx="3.7768337"
     inkscape:cy="7.9643704"
     inkscape:document-units="px"
     inkscape:current-layer="layer1"
     showgrid="false"
     inkscape:window-width="1920"
     inkscape:window-height="1016"
     inkscape:window-x="0"
     inkscape:window-y="27"
     inkscape:window-maximized="1"
     inkscape:grid-bbox="true"
     inkscape:pagecheckerboard="true" />
  <metadata
     id="metadata819">
    <rdf:RDF>
      <cc:Work
         rdf:about="">
        <dc:format>image/svg+xml</dc:format>
        <dc:type
           rdf:resource="http://purl.org/dc/dcmitype/StillImage" />
        <dc:title></dc:title>
      </cc:Work>
    </rdf:RDF>
  </metadata>
  <g
     inkscape:label="Layer 1"
     inkscape:groupmode="layer"
     id="layer1">
    <path
       inkscape:connector-curvature="0"
       d="m 15.01444,1.1563611 c 6.26e-4,6.06e-4 0.0013,0.00135 0.0019,0.00207 V 14.843316 c -5.31e-4,7.14e-4 -0.0012,0.0015 -0.0019,0.0021 H 1.0059065 c -6.255e-4,-6.07e-4 -0.00128,-0.0014 -0.00178,-0.0021 V 1.1583931 c 5.317e-4,-7.13e-4 0.00119,-0.00146 0.00178,-0.00203 z m 0.0019,-1.14074891 H 1.0041237 c -0.55047654,0 -1.00086647,0.51333702 -1.00086647,1.14074891 V 14.845349 c 0,0.627412 0.45038993,1.140748 1.00086647,1.140748 H 15.016254 c 0.550477,0 1.000867,-0.513336 1.000867,-1.140748 V 1.1563611 c 0,-0.62741189 -0.45039,-1.14074891 -1.000867,-1.14074891 z"
       id="path5"
       style="fill:#ffffff;fill-opacity:0.98113248;stroke-width:0.03339129" />
    <path
       inkscape:connector-curvature="0"
       d="m 13.014522,4.0082334 c 0,0.9450393 -0.672145,1.7111234 -1.5013,1.7111234 -0.829155,0 -1.5013,-0.7660841 -1.5013,-1.7111234 0,-0.9450391 0.672145,-1.7111234 1.5013,-1.7111234 0.829155,0 1.5013,0.7660843 1.5013,1.7111234 z"
       id="path7"
       style="fill:#ffffff;fill-opacity:0.98113248;stroke-width:0.03339129" />
    <path
       inkscape:connector-curvature="0"
       d="M 14.015388,13.7046 H 2.0049902 v -2.281498 l 3.5030327,-6.844494 4.003466,5.703745 h 1.0008661 l 3.503033,-3.4222472 z"
       id="path9"
       style="fill:#ffffff;fill-opacity:0.98113248;stroke-width:0.03339129" />
  </g>
</svg>
