<?xml version="1.0" encoding="UTF-8" standalone="no"?>
<!-- Created with Inkscape (http://www.inkscape.org/) -->

<svg
   xmlns:dc="http://purl.org/dc/elements/1.1/"
   xmlns:cc="http://creativecommons.org/ns#"
   xmlns:rdf="http://www.w3.org/1999/02/22-rdf-syntax-ns#"
   xmlns:svg="http://www.w3.org/2000/svg"
   xmlns="http://www.w3.org/2000/svg"
   xmlns:sodipodi="http://sodipodi.sourceforge.net/DTD/sodipodi-0.dtd"
   xmlns:inkscape="http://www.inkscape.org/namespaces/inkscape"
   width="16px"
   height="16px"
   viewBox="0 0 16 16"
   version="1.1"
   id="SVGRoot"
   inkscape:version="0.92.5 (2060ec1f9f, 2020-04-08)"
   sodipodi:docname="Locales.svg">
  <defs
     id="defs820" />
  <sodipodi:namedview
     id="base"
     pagecolor="#ffffff"
     bordercolor="#666666"
     borderopacity="1.0"
     inkscape:pageopacity="0.0"
     inkscape:pageshadow="2"
     inkscape:zoom="45.254834"
     inkscape:cx="-1.4215939"
     inkscape:cy="8.2723937"
     inkscape:document-units="px"
     inkscape:current-layer="layer1"
     showgrid="false"
     inkscape:window-width="1920"
     inkscape:window-height="1016"
     inkscape:window-x="0"
     inkscape:window-y="27"
     inkscape:window-maximized="1"
     inkscape:grid-bbox="true"
     inkscape:pagecheckerboard="true"
     showguides="true"
     inkscape:guide-bbox="true">
    <sodipodi:guide
       position="6.4965436,7.9991455"
       orientation="0,1"
       id="guide1600"
       inkscape:locked="false" />
  </sodipodi:namedview>
  <metadata
     id="metadata823">
    <rdf:RDF>
      <cc:Work
         rdf:about="">
        <dc:format>image/svg+xml</dc:format>
        <dc:type
           rdf:resource="http://purl.org/dc/dcmitype/StillImage" />
        <dc:title />
      </cc:Work>
    </rdf:RDF>
  </metadata>
  <g
     inkscape:label="Layer 1"
     inkscape:groupmode="layer"
     id="layer1"
     style="opacity:1">
    <path
       inkscape:connector-curvature="0"
       d="m 15.09764,14.092151 c 0,0.707853 0.360297,1.320932 0.88593,1.620813 v 0.247951 c -0.147092,0.02271 -0.297229,0.0346 -0.449886,0.0346 -0.941413,0 -1.790522,-0.443816 -2.390934,-1.155341 -0.362983,0.108621 -0.747532,0.167271 -1.145869,0.167271 -2.2017873,0 -3.986689,-1.783105 -3.986689,-3.982646 0,-2.1995409 1.7849017,-3.9826463 3.986689,-3.9826463 2.201788,0 3.986689,1.7831054 3.986689,3.9826463 0,0.861061 -0.273586,1.658274 -0.738589,2.309717 -0.09446,0.23062 -0.147341,0.487128 -0.147341,0.757635 z M 3.2300131,3.5135582 C 2.3134344,4.3505051 1.8086752,5.4268464 1.8086752,6.5443209 c 0,0.6269246 0.1548719,1.2349004 0.4602965,1.8069702 0.3149485,0.5899295 0.7887832,1.1292358 1.3702585,1.5596417 0.4202081,0.3110202 0.7029308,0.8081662 0.7776259,1.3673852 0.024917,0.186438 0.040531,0.374742 0.04665,0.561989 0.1034047,-0.09636 0.2041794,-0.199848 0.3028776,-0.310771 0.3343559,-0.375738 0.7859869,-0.58324 1.2527894,-0.58324 0.074307,0 0.1489748,0.0053 0.2236422,0.01587 0.2899763,0.04141 0.5861541,0.06248 0.8803108,0.06254 v 1.991323 c -0.375524,-3.1e-5 -0.7440989,-0.02707 -1.1038422,-0.07844 -1.5223893,1.710951 -3.3395445,2.017771 -5.0965394,2.062824 v -0.418737 c 0.9487213,-0.522381 1.7718619,-1.473891 1.7718619,-2.561278 0,-0.151745 -0.010493,-0.300721 -0.029955,-0.446429 -1.602926,-1.186456 -2.62783734,-2.9987153 -2.62783734,-5.0297093 0,-3.5742695 3.17315554,-6.47180017 7.08744764,-6.47180017 3.8546033,0 6.9904383,2.80985027 7.0851773,6.30876057 C 13.64056,6.0963354 13.021184,5.923557 12.378579,5.8744585 12.218973,5.0021967 11.750094,4.1815849 11.018509,3.5135582 10.529558,3.0670973 9.953786,2.7140732 9.3071672,2.4643177 8.6191034,2.1986005 7.8846943,2.0638439 7.124261,2.0638439 c -0.7604333,0 -1.4948423,0.1347566 -2.1829061,0.4004738 C 4.294736,2.7140732 3.718964,3.0670662 3.2300131,3.5135582 Z"
       id="path5"
       style="stroke-width:0.02934984;fill:#ffffff;fill-opacity:1" />
  </g>
</svg>
