<?xml version="1.0" encoding="UTF-8" standalone="no"?>
<!-- Created with Inkscape (http://www.inkscape.org/) -->

<svg
   xmlns:dc="http://purl.org/dc/elements/1.1/"
   xmlns:cc="http://creativecommons.org/ns#"
   xmlns:rdf="http://www.w3.org/1999/02/22-rdf-syntax-ns#"
   xmlns:svg="http://www.w3.org/2000/svg"
   xmlns="http://www.w3.org/2000/svg"
   xmlns:sodipodi="http://sodipodi.sourceforge.net/DTD/sodipodi-0.dtd"
   xmlns:inkscape="http://www.inkscape.org/namespaces/inkscape"
   width="16px"
   height="16px"
   viewBox="0 0 16 16"
   version="1.1"
   id="SVGRoot"
   inkscape:version="0.92.5 (2060ec1f9f, 2020-04-08)"
   sodipodi:docname="at.svg"
   enable-background="new">
  <defs
     id="defs820">
    <filter
       inkscape:collect="always"
       style="color-interpolation-filters:sRGB"
       id="filter824">
      <feBlend
         inkscape:collect="always"
         mode="darken"
         in2="BackgroundImage"
         id="feBlend826" />
    </filter>
  </defs>
  <sodipodi:namedview
     id="base"
     pagecolor="#ffffff"
     bordercolor="#666666"
     borderopacity="1.0"
     inkscape:pageopacity="0.0"
     inkscape:pageshadow="2"
     inkscape:zoom="45.254834"
     inkscape:cx="2.6008748"
     inkscape:cy="6.9477747"
     inkscape:document-units="px"
     inkscape:current-layer="layer1"
     showgrid="false"
     inkscape:window-width="1920"
     inkscape:window-height="1043"
     inkscape:window-x="1920"
     inkscape:window-y="0"
     inkscape:window-maximized="1"
     inkscape:grid-bbox="true"
     inkscape:pagecheckerboard="true" />
  <metadata
     id="metadata823">
    <rdf:RDF>
      <cc:Work
         rdf:about="">
        <dc:format>image/svg+xml</dc:format>
        <dc:type
           rdf:resource="http://purl.org/dc/dcmitype/StillImage" />
        <dc:title></dc:title>
      </cc:Work>
    </rdf:RDF>
  </metadata>
  <g
     inkscape:label="Layer 1"
     inkscape:groupmode="layer"
     id="layer1"
     style="filter:url(#filter824);opacity:1">
    <path
       inkscape:connector-curvature="0"
       d="m 8.0101947,0.02706915 c -4.402638,0 -7.98483432,3.58219645 -7.98483432,7.98483455 0,4.4026383 3.58219632,7.9848353 7.98483432,7.9848353 1.6129365,0 3.1659863,-0.478092 4.4904713,-1.381376 0.455135,-0.311409 0.572912,-0.932231 0.262501,-1.387366 -0.31041,-0.456134 -0.930233,-0.570916 -1.387365,-0.262502 -0.992115,0.677713 -2.155905,1.035035 -3.3656073,1.035035 -3.3027271,0 -5.9886258,-2.685899 -5.9886258,-5.9886263 0,-3.3027272 2.6858987,-5.9886259 5.9886258,-5.9886259 3.3027273,0 5.9886253,2.6858987 5.9886253,5.9886259 v 0.4990522 c 0,0.5509534 -0.44715,0.9981042 -0.998104,0.9981042 -0.550954,0 -0.998104,-0.4471508 -0.998104,-0.9981042 v -2.994313 c 0,-0.5519517 -0.446153,-0.9981043 -0.998104,-0.9981043 -0.440164,0 -0.803474,0.2894503 -0.936222,0.6866957 C 9.4893852,4.7790437 8.7817293,4.5185386 8.0101947,4.5185386 c -1.9263413,0 -3.493365,1.5670237 -3.493365,3.4933651 0,1.9263413 1.5670237,3.4933653 3.493365,3.4933653 1.0430189,0 1.9712559,-0.469109 2.6110403,-1.196727 0.546962,0.721629 1.405331,1.196727 2.379481,1.196727 1.650866,0 2.994315,-1.343449 2.994315,-2.9943131 V 8.0119037 c 0,-4.4026381 -3.582198,-7.98483455 -7.9848363,-7.98483455 z m 0,9.48199095 c -0.8254323,0 -1.4971564,-0.6717241 -1.4971564,-1.4971564 0,-0.8254323 0.6717241,-1.4971565 1.4971564,-1.4971565 0.8254322,0 1.4971564,0.6717242 1.4971564,1.4971565 0,0.8254323 -0.6717242,1.4971564 -1.4971564,1.4971564 z"
       id="path5-3"
       style="fill:#ffffff;fill-opacity:1;stroke-width:0.03119076" />
  </g>
</svg>
