<?xml version="1.0" encoding="UTF-8" standalone="no"?>
<!-- Created with Inkscape (http://www.inkscape.org/) -->

<svg
   xmlns:dc="http://purl.org/dc/elements/1.1/"
   xmlns:cc="http://creativecommons.org/ns#"
   xmlns:rdf="http://www.w3.org/1999/02/22-rdf-syntax-ns#"
   xmlns:svg="http://www.w3.org/2000/svg"
   xmlns="http://www.w3.org/2000/svg"
   xmlns:sodipodi="http://sodipodi.sourceforge.net/DTD/sodipodi-0.dtd"
   xmlns:inkscape="http://www.inkscape.org/namespaces/inkscape"
   width="16px"
   height="16px"
   viewBox="0 0 16 16"
   version="1.1"
   id="SVGRoot"
   inkscape:version="0.92.5 (2060ec1f9f, 2020-04-08)"
   sodipodi:docname="Translation.svg">
  <defs
     id="defs820" />
  <sodipodi:namedview
     id="base"
     pagecolor="#ffffff"
     bordercolor="#666666"
     borderopacity="1.0"
     inkscape:pageopacity="0.0"
     inkscape:pageshadow="2"
     inkscape:zoom="45.254834"
     inkscape:cx="2.6774157"
     inkscape:cy="8.360782"
     inkscape:document-units="px"
     inkscape:current-layer="layer1"
     showgrid="false"
     inkscape:window-width="1920"
     inkscape:window-height="1016"
     inkscape:window-x="0"
     inkscape:window-y="27"
     inkscape:window-maximized="1"
     inkscape:grid-bbox="true"
     inkscape:pagecheckerboard="true"
     showguides="true"
     inkscape:guide-bbox="true">
    <sodipodi:guide
       position="6.4965436,7.9991455"
       orientation="0,1"
       id="guide1600"
       inkscape:locked="false" />
  </sodipodi:namedview>
  <metadata
     id="metadata823">
    <rdf:RDF>
      <cc:Work
         rdf:about="">
        <dc:format>image/svg+xml</dc:format>
        <dc:type
           rdf:resource="http://purl.org/dc/dcmitype/StillImage" />
        <dc:title />
      </cc:Work>
    </rdf:RDF>
  </metadata>
  <g
     inkscape:label="Layer 1"
     inkscape:groupmode="layer"
     id="layer1">
    <path
       inkscape:connector-curvature="0"
       d="m 8.0212431,0.00497579 c -4.4160077,0 -7.99588326,3.58482231 -7.99588326,8.00693191 0,4.4221093 3.57987556,8.0069323 7.99588326,8.0069323 4.4160079,0 7.9958839,-3.584823 7.9958839,-8.0069323 0,-4.4221096 -3.579876,-8.00693191 -7.9958839,-8.00693191 z m 0,15.01302821 c -0.9832125,0 -1.918887,-0.203488 -2.7677937,-0.570056 l 3.6410629,-4.101832 c 0.081302,-0.09161 0.1262163,-0.2099 0.1262163,-0.332475 v -1.5013 c 0,-0.2763956 -0.2237286,-0.5004333 -0.4997427,-0.5004333 -1.7645603,0 -3.6263206,-1.836934 -3.6445924,-1.8551373 C 4.7826917,6.0629079 4.6555697,6.0101748 4.5230441,6.0101748 H 2.5240734 c -0.2759829,0 -0.4997427,0.2240689 -0.4997427,0.5004332 v 3.0025995 c 0,0.1895703 0.1069449,0.3628454 0.276264,0.4476062 l 1.7227067,0.8625593 v 2.938263 C 2.2109221,12.495602 1.0248453,10.392594 1.0248453,8.0119077 c 0,-1.0745865 0.2419067,-2.0925303 0.6736844,-3.0025994 h 1.825029 c 0.1325568,0 0.2596476,-0.052733 0.3533806,-0.1465644 L 5.8759101,2.8610109 C 5.9696119,2.7671484 6.0222723,2.6398819 6.0222723,2.507142 V 1.2965314 C 6.6557274,1.1077117 7.3265695,1.0058423 8.0212431,1.0058423 c 1.0995277,0 2.1395859,0.2542826 3.0653279,0.7068619 -0.06472,0.054766 -0.127684,0.1120345 -0.188122,0.172587 -0.566364,0.5671159 -0.878235,1.3211125 -0.878235,2.1231506 0,0.8020381 0.311871,1.5560346 0.878235,2.1231506 0.568989,0.5697432 1.330846,0.8798867 2.118191,0.8798242 0.04944,0 0.09904,-0.00125 0.148642,-0.00369 0.215733,0.8101076 0.605189,2.9190271 -0.131245,5.8227604 -0.0069,0.02727 -0.01093,0.05455 -0.01312,0.08169 C 11.750883,14.211427 9.980295,15.018 8.0212724,15.018 Z"
       id="path5"
       style="stroke-width:0.03125549;fill:#ffffff;fill-opacity:1" />
  </g>
</svg>
