<?xml version="1.0" encoding="UTF-8" standalone="no"?>
<!-- Created with Inkscape (http://www.inkscape.org/) -->

<svg
   xmlns:dc="http://purl.org/dc/elements/1.1/"
   xmlns:cc="http://creativecommons.org/ns#"
   xmlns:rdf="http://www.w3.org/1999/02/22-rdf-syntax-ns#"
   xmlns:svg="http://www.w3.org/2000/svg"
   xmlns="http://www.w3.org/2000/svg"
   xmlns:sodipodi="http://sodipodi.sourceforge.net/DTD/sodipodi-0.dtd"
   xmlns:inkscape="http://www.inkscape.org/namespaces/inkscape"
   width="16px"
   height="16px"
   viewBox="0 0 16 16"
   version="1.1"
   id="SVGRoot"
   inkscape:version="0.92.5 (2060ec1f9f, 2020-04-08)"
   sodipodi:docname="Cancel.svg">
  <defs
     id="defs820" />
  <sodipodi:namedview
     id="base"
     pagecolor="#ffffff"
     bordercolor="#666666"
     borderopacity="1.0"
     inkscape:pageopacity="0.0"
     inkscape:pageshadow="2"
     inkscape:zoom="45.254834"
     inkscape:cx="4.2126349"
     inkscape:cy="7.5511398"
     inkscape:document-units="px"
     inkscape:current-layer="layer1"
     showgrid="false"
     inkscape:window-width="1920"
     inkscape:window-height="1016"
     inkscape:window-x="0"
     inkscape:window-y="27"
     inkscape:window-maximized="1"
     inkscape:grid-bbox="true"
     inkscape:pagecheckerboard="true" />
  <metadata
     id="metadata823">
    <rdf:RDF>
      <cc:Work
         rdf:about="">
        <dc:format>image/svg+xml</dc:format>
        <dc:type
           rdf:resource="http://purl.org/dc/dcmitype/StillImage" />
        <dc:title />
      </cc:Work>
    </rdf:RDF>
  </metadata>
  <g
     inkscape:label="Layer 1"
     inkscape:groupmode="layer"
     id="layer1">
    <path
       inkscape:connector-curvature="0"
       d="m 15.893561,12.896603 c -6.1e-5,-6.2e-5 -1.24e-4,-1.24e-4 -1.86e-4,-1.56e-4 L 11.04876,8.045035 15.893375,3.1936229 c 6.2e-5,-6.26e-5 1.25e-4,-9.38e-5 1.86e-4,-1.563e-4 0.05215,-0.052254 0.08986,-0.1132844 0.114034,-0.1782836 0.06622,-0.1776575 0.02838,-0.385458 -0.11422,-0.5283221 L 13.604813,0.19513298 c -0.142666,-0.14283283 -0.350116,-0.1806259 -0.527561,-0.11431625 -0.06488,0.02420628 -0.125853,0.06196816 -0.178067,0.11416007 0,6.248e-5 -6.3e-5,9.369e-5 -1.25e-4,1.5618e-4 L 8.0543834,5.0465765 3.2097072,0.1951642 c -6.24e-5,-6.246e-5 -9.36e-5,-9.371e-5 -1.56e-4,-1.5616e-4 C 3.1573691,0.14281612 3.0964224,0.10505428 3.0315453,0.08084797 2.8540699,0.01450708 2.64662,0.05233138 2.5039534,0.1951642 L 0.21536133,2.4869237 c -0.1426666,0.1428639 -0.18040745,0.3506321 -0.11418944,0.5282908 0.0242039,0.064967 0.0619137,0.1260588 0.11403348,0.1782835 6.24e-5,3.11e-5 9.359e-5,9.35e-5 1.5596e-4,1.56e-4 L 5.0600689,8.045035 0.21536133,12.896479 c -3.119e-5,6.2e-5 -9.356e-5,9.3e-5 -1.2478e-4,1.55e-4 -0.0521198,0.05225 -0.0898294,0.113285 -0.11406466,0.178252 -0.0662492,0.177661 -0.02847716,0.385459 0.11418944,0.528323 l 2.28859207,2.291727 c 0.1426981,0.142864 0.3501477,0.180658 0.5275919,0.114348 0.064876,-0.02423 0.125854,-0.062 0.1780377,-0.11419 3.11e-5,-6.3e-5 9.35e-5,-9.4e-5 1.559e-4,-1.57e-4 l 4.8446757,-4.851412 4.8446764,4.851411 c 6.3e-5,3.3e-5 1.25e-4,9.5e-5 1.88e-4,1.26e-4 0.05222,0.05222 0.113127,0.08999 0.178003,0.114222 0.177445,0.06631 0.384958,0.02852 0.527561,-0.114348 l 2.288563,-2.291758 c 0.142667,-0.142864 0.180438,-0.350664 0.11422,-0.528322 -0.02434,-0.06497 -0.06191,-0.125998 -0.114065,-0.178253 z"
       id="path5"
       style="stroke-width:0.03121235;fill:#ffffff;fill-opacity:0.95754719" />
  </g>
</svg>
